<?xml version="1.0" standalone="no"?>
<!DOCTYPE svg PUBLIC "-//W3C//DTD SVG 20010904//EN"
 "http://www.w3.org/TR/2001/REC-SVG-20010904/DTD/svg10.dtd">
<svg version="1.0" xmlns="http://www.w3.org/2000/svg"
 width="300.000000pt" height="300.000000pt" viewBox="0 0 300.000000 300.000000"
 preserveAspectRatio="xMidYMid meet">
<metadata>
Created by potrace 1.10, written by Peter Selinger 2001-2011
</metadata>
<g transform="translate(0.000000,300.000000) scale(0.100000,-0.100000)"
fill="#000000" stroke="none">
<path d="M1935 1984 c-59 -36 -59 -36 -145 -29 -47 4 -121 8 -165 10 -44 2
-134 8 -200 14 -305 27 -393 30 -590 20 l-200 -11 -32 -33 c-30 -32 -37 -34
-105 -37 l-73 -3 -3 -95 c-6 -160 26 -477 57 -576 10 -32 34 -105 51 -162 37
-118 70 -172 143 -238 97 -87 193 -117 362 -112 58 2 105 1 105 -1 0 -2 -5
-21 -11 -41 -16 -54 -6 -86 32 -99 79 -27 523 -3 567 31 43 33 44 78 3 119
-16 16 -28 29 -26 29 71 0 274 51 462 117 70 24 158 88 210 153 57 70 127 203
142 270 11 48 15 567 5 594 -5 13 -23 16 -95 16 -82 0 -89 2 -89 20 0 11 -12
26 -30 35 -35 18 -53 19 -96 3 -28 -10 -40 -8 -92 15 -80 36 -114 35 -187 -9z
m167 -9 c59 -27 86 -30 132 -14 37 13 86 -2 86 -26 0 -13 -96 -15 -860 -15
l-860 0 12 20 c17 27 20 27 239 40 127 7 199 8 230 1 24 -6 83 -11 130 -11 47
0 99 -4 115 -9 16 -5 150 -14 297 -21 l269 -11 46 29 c79 50 91 51 164 17z
m408 -332 c0 -142 -4 -283 -9 -315 -12 -71 -71 -192 -131 -266 -50 -63 -145
-132 -212 -154 -161 -55 -285 -91 -363 -104 -108 -18 -358 -33 -673 -41 -225
-5 -234 -4 -299 18 -84 30 -197 131 -230 205 -68 154 -112 311 -124 439 -5 61
-14 153 -19 205 -6 52 -10 134 -10 183 l0 87 1035 0 1035 0 0 -257z m-802
-902 c45 -42 45 -87 0 -105 -73 -30 -480 -50 -542 -26 -30 11 -34 39 -13 90
13 29 18 32 68 36 30 2 142 10 249 17 107 8 197 15 200 16 3 0 20 -12 38 -28z"/>
<path d="M1032 1588 c-14 -14 -17 -158 -3 -158 5 0 11 37 13 83 4 96 5 90 -10
75z"/>
<path d="M2100 1533 c-81 -98 -112 -142 -108 -154 2 -6 16 6 30 28 14 22 53
71 87 110 34 39 61 74 61 77 0 16 -20 -1 -70 -61z"/>
<path d="M1762 1555 c-14 -30 -16 -135 -3 -135 4 0 11 28 14 63 3 34 8 70 12
80 11 27 -11 20 -23 -8z"/>
<path d="M2257 1487 c-30 -20 -190 -197 -184 -204 4 -3 55 44 114 106 98 101
120 131 70 98z"/>
<path d="M643 1313 c-66 -71 -77 -100 -17 -42 47 45 98 109 87 109 -5 0 -37
-30 -70 -67z"/>
<path d="M728 1263 c-38 -30 -68 -62 -68 -70 0 -8 33 14 75 52 41 37 75 69 75
71 0 11 -22 -3 -82 -53z"/>
<path d="M1192 1083 c-38 -15 19 -23 173 -23 163 0 225 10 154 24 -37 7 -308
7 -327 -1z"/>
</g>
</svg>
