<?xml version="1.0" standalone="no"?>
<!DOCTYPE svg PUBLIC "-//W3C//DTD SVG 20010904//EN"
 "http://www.w3.org/TR/2001/REC-SVG-20010904/DTD/svg10.dtd">
<svg version="1.0" xmlns="http://www.w3.org/2000/svg"
 width="750.000000pt" height="750.000000pt" viewBox="0 0 750.000000 750.000000"
 preserveAspectRatio="xMidYMid meet">
<metadata>
Created by potrace 1.16, written by Peter Selinger 2001-2019
</metadata>
<g transform="translate(0.000000,750.000000) scale(0.100000,-0.100000)"
fill="#000000" stroke="none">
<path d="M5030 5053 c-39 -7 -158 -67 -242 -122 l-76 -51 -89 0 c-48 0 -135 7
-193 16 -81 12 -150 14 -300 9 -168 -6 -202 -4 -245 11 -39 13 -104 18 -300
23 -227 6 -255 9 -303 29 -49 20 -69 22 -265 22 -173 0 -229 4 -306 20 -115
24 -285 27 -357 5 -35 -10 -98 -15 -219 -15 -122 -1 -181 -5 -210 -15 -27 -10
-83 -15 -178 -15 -94 0 -148 -4 -170 -14 -38 -15 -103 -86 -123 -133 l-14 -32
-189 -3 c-104 -2 -193 -7 -198 -11 -13 -14 -10 -541 5 -637 18 -124 30 -252
43 -455 13 -222 54 -449 108 -605 22 -63 52 -164 67 -225 14 -60 34 -126 44
-145 9 -19 27 -69 39 -110 53 -182 119 -286 283 -446 183 -178 267 -226 548
-309 14 -4 170 -10 347 -14 l321 -6 -34 -88 c-44 -114 -44 -155 -3 -202 64
-72 44 -70 544 -73 406 -3 466 -1 615 18 211 26 265 37 320 65 77 39 95 66 95
143 0 92 -31 154 -97 195 -27 17 -45 33 -41 37 4 4 87 17 183 29 198 24 329
56 540 131 80 28 204 66 276 85 302 77 515 218 716 470 117 147 260 418 312
588 40 131 48 311 44 950 -3 535 -4 549 -23 563 -16 12 -17 16 -6 23 7 5 10
14 7 20 -5 8 -78 11 -232 11 l-224 0 0 35 c0 84 -66 135 -185 143 -60 4 -78 1
-115 -18 -61 -31 -138 -23 -231 25 -151 77 -208 92 -289 78z m229 -113 c122
-58 130 -60 207 -60 60 0 86 4 104 17 30 21 133 23 171 3 57 -30 77 -73 45
-99 -21 -18 -4286 -11 -4286 7 0 6 22 35 48 62 l48 50 157 0 c93 0 167 5 184
11 16 7 104 13 213 14 106 2 197 7 213 14 43 17 261 14 332 -5 42 -11 129 -17
295 -20 191 -4 246 -9 295 -24 49 -15 104 -20 290 -23 185 -4 240 -9 280 -23
42 -15 89 -17 295 -18 141 -1 290 -7 350 -15 57 -7 136 -11 175 -8 66 4 75 8
163 67 51 34 118 73 150 86 91 37 126 33 271 -36z m-939 -190 l1955 0 -3 -647
c-3 -816 -6 -843 -107 -1059 -99 -213 -251 -430 -376 -541 -154 -135 -339
-230 -556 -287 -70 -18 -198 -58 -284 -89 -215 -77 -288 -94 -574 -133 -214
-30 -303 -37 -620 -49 -256 -9 -417 -20 -522 -35 -140 -19 -187 -21 -585 -18
l-433 3 -100 34 c-182 61 -259 107 -395 235 -180 172 -249 272 -295 431 -9 32
-28 82 -43 110 -14 27 -42 113 -63 190 -20 77 -51 181 -69 230 -59 168 -86
352 -99 670 -5 121 -14 243 -19 270 -21 105 -32 258 -35 474 l-2 224 635 -6
c349 -4 1515 -7 2590 -7z m-110 -2844 c0 -7 24 -29 54 -49 46 -30 57 -45 75
-92 31 -84 21 -129 -37 -166 -54 -34 -96 -43 -327 -68 -137 -15 -274 -21 -570
-24 -214 -3 -414 -1 -443 3 -117 15 -138 77 -78 235 l35 90 143 6 c79 4 190
14 248 22 59 9 251 21 440 27 280 10 373 16 453 29 4 0 7 -5 7 -13z"/>
<path d="M2573 3963 c-16 -24 -18 -50 -17 -196 1 -101 6 -173 12 -179 26 -26
32 7 32 165 0 124 4 169 15 191 20 37 19 46 -5 46 -11 0 -28 -12 -37 -27z"/>
<path d="M4405 3883 c-26 -60 -30 -82 -33 -188 -4 -102 -2 -123 12 -134 13
-11 19 -11 31 -1 11 9 15 36 15 109 0 84 10 156 35 254 6 22 4 27 -12 27 -13
0 -27 -18 -48 -67z"/>
<path d="M3008 2713 c-35 -6 -56 -29 -39 -46 14 -14 740 -23 831 -10 63 9 81
35 33 48 -30 8 -781 16 -825 8z"/>
</g>
</svg>
